<svg id="ew03y9km9ptr1" xmlns="http://www.w3.org/2000/svg" xmlns:xlink="http://www.w3.org/1999/xlink"
    viewBox="0 0 100 100" shape-rendering="geometricPrecision" text-rendering="geometricPrecision">
    <style>
        <![CDATA[
        #ew03y9km9ptr2_tr {
            animation: ew03y9km9ptr2_tr__tr 3000ms linear infinite alternate-reverse forwards
        }

        @keyframes ew03y9km9ptr2_tr__tr {
            0% {
                transform: translate(49.999883px, 49.999964px) rotate(-110deg)
            }

            23.333333% {
                transform: translate(49.999883px, 49.999964px) rotate(-70deg)
            }

            50% {
                transform: translate(49.999883px, 49.999964px) rotate(-110deg)
            }

            76.666667% {
                transform: translate(49.999883px, 49.999964px) rotate(-70deg)
            }

            100% {
                transform: translate(49.999883px, 49.999964px) rotate(-110deg)
            }
        }
        ]]>
    </style>
    <g id="ew03y9km9ptr2_tr" transform="translate(49.999883,49.999964) rotate(-110)">
        <g id="ew03y9km9ptr2" transform="scale(1,-1) translate(-50,-49.999879)">
            <path id="ew03y9km9ptr3"
                d="M26.278000,60.082000L26.278000,67.290000L19.070000,67.290000L19.070000,74.498000L10,74.498000L11.506000,88.118000L25.553000,89.671000L64.363000,50.861000C68.671000,46.553000,68.671000,39.568000,64.363000,35.260000L64.363000,35.260000C60.055000,30.952000,53.071000,30.952000,48.763000,35.260000L33.486000,50.538000L33.486000,60.082000L26.278000,60.082000Z"
                fill="rgb(248,178,106)" stroke="rgb(51,51,51)" stroke-width="3.500000" stroke-miterlimit="10" />
            <path id="ew03y9km9ptr4"
                d="M23.096000,79.308000L55.623000,46.781000L59.158000,50.316000L29.460000,80.015000Z" opacity="0.2"
                fill="rgb(0,0,0)" stroke="none" stroke-width="1" />
            <path id="ew03y9km9ptr5"
                d="M82.735000,52.672000C92.422000,42.985000,92.422000,27.280000,82.735000,17.594000C73.048000,7.907000,57.343000,7.907000,47.657000,17.594000C37.970000,27.281000,37.970000,42.986000,47.657000,52.672000C57.344000,62.359000,73.049000,62.359000,82.735000,52.672000ZM66.277000,24.681000C68.865006,22.093546,73.060546,22.093994,75.648000,24.682000C78.235454,27.270006,78.235006,31.465546,75.647000,34.053000C73.058994,36.640454,68.863454,36.640006,66.276000,34.052000C63.688546,31.463994,63.688994,27.268454,66.277000,24.681000Z"
                fill="rgb(248,178,106)" stroke="rgb(51,51,51)" stroke-width="3.500000" stroke-miterlimit="10" />
            <path id="ew03y9km9ptr6"
                d="M55.987000,17.950000C55.248000,18.347000,54.529000,18.794000,53.835000,19.293000"
                fill="rgb(248,178,106)" stroke="rgb(255,255,255)" stroke-width="3.500000" stroke-linecap="round"
                stroke-miterlimit="10" />
            <path id="ew03y9km9ptr7"
                d="M72.693000,17.137000C69.234960,15.701699,65.437632,15.289029,61.752000,15.948000"
                fill="rgb(248,178,106)" stroke="rgb(255,255,255)" stroke-width="3.500000" stroke-linecap="round"
                stroke-miterlimit="10" />
            <path id="ew03y9km9ptr8"
                d="M75.647000,34.052000C74.404538,35.294684,72.719264,35.992835,70.962000,35.992835C69.204736,35.992835,67.519462,35.294684,66.277000,34.052000L12.141000,88.188000L25.553000,89.671000L56.763000,58.460000C65.526000,61.621000,75.712000,59.695000,82.735000,52.671000C92.422000,42.984000,92.421000,27.279000,82.735000,17.593000L75.647000,24.681000C76.889745,25.923633,77.587921,27.609072,77.587921,29.366500C77.587921,31.123928,76.889745,32.809367,75.647000,34.052000Z"
                opacity="0.2" fill="rgb(0,0,0)" stroke="rgb(0,0,0)" stroke-width="3.500000" stroke-miterlimit="10" />
        </g>
    </g>
</svg>