<svg id="eji28tuoi3pl1" xmlns="http://www.w3.org/2000/svg" xmlns:xlink="http://www.w3.org/1999/xlink"
    viewBox="0 0 512.000030 512" shape-rendering="geometricPrecision" text-rendering="geometricPrecision">
    <style>
        <![CDATA[
        #eji28tuoi3pl2_to {
            animation: eji28tuoi3pl2_to__to 3000ms linear 1 normal forwards paused
        }

        @keyframes eji28tuoi3pl2_to__to {
            0% {
                transform: translate(256.380927px, 293.392685px)
            }

            33.333333% {
                transform: translate(256.380927px, 293.392685px)
            }

            50% {
                transform: translate(254.799325px, 247.171875px)
            }

            66.666667% {
                transform: translate(254.799325px, 178.670533px)
            }

            100% {
                transform: translate(254.799325px, 178.670533px)
            }
        }

        #eji28tuoi3pl18_tr {
            animation: eji28tuoi3pl18_tr__tr 3000ms linear 1 normal forwards paused
        }

        @keyframes eji28tuoi3pl18_tr__tr {
            0% {
                transform: translate(257.200736px, 378.540039px) rotate(0deg)
            }

            10% {
                transform: translate(257.200736px, 378.540039px) rotate(5deg)
            }

            20% {
                transform: translate(257.200736px, 378.540039px) rotate(-5deg)
            }

            33.333333% {
                transform: translate(257.200736px, 378.540039px) rotate(0deg)
            }

            100% {
                transform: translate(257.200736px, 378.540039px) rotate(0deg)
            }
        }

        #eji28tuoi3pl27_to {
            animation: eji28tuoi3pl27_to__to 3000ms linear 1 normal forwards paused
        }

        @keyframes eji28tuoi3pl27_to__to {
            0% {
                transform: translate(256.380927px, 260.736313px)
            }

            33.333333% {
                transform: translate(256.380927px, 260.736313px)
            }

            50% {
                transform: translate(254.799325px, 211.613264px)
            }

            66.666667% {
                transform: translate(254.799325px, 136.740831px)
            }

            100% {
                transform: translate(254.799325px, 136.740831px)
            }
        }

        #eji28tuoi3pl27_tr {
            animation: eji28tuoi3pl27_tr__tr 3000ms linear 1 normal forwards paused
        }

        @keyframes eji28tuoi3pl27_tr__tr {
            0% {
                transform: rotate(0deg)
            }

            10% {
                transform: rotate(-5deg)
            }

            20% {
                transform: rotate(5deg)
            }

            33.333333% {
                transform: rotate(0deg)
            }

            100% {
                transform: rotate(0deg)
            }
        }
        ]]>
    </style>
    <g id="eji28tuoi3pl2_to" transform="translate(256.380927,293.392685)">
        <path id="eji28tuoi3pl2"
            d="M61.792969,247.171875L0,105.929688L255.699219,92.691406L512,105.929688L450.207031,247.171875ZM61.792969,247.171875"
            transform="translate(-256,-169.931641)" fill="rgb(128,83,51)" stroke="none" stroke-width="1" />
    </g>
    <g id="eji28tuoi3pl3" transform="matrix(1 0 0 1 -3.81243279499893 6.93163883999998)">
        <path id="eji28tuoi3pl4"
            d="M428.226562,240.640625L387.621094,216.628906L376.585938,173.636719L383.382812,177.609375L417.101562,197.562500ZM428.226562,240.640625"
            fill="rgb(230,76,60)" stroke="none" stroke-width="1" />
        <path id="eji28tuoi3pl5"
            d="M362.992188,165.605469L320.089844,176.726562L279.480469,152.718750L322.472656,141.683594L356.281250,161.632812ZM362.992188,165.605469"
            fill="rgb(204,75,76)" stroke="none" stroke-width="1" />
        <path id="eji28tuoi3pl6"
            d="M387.621094,216.628906L321.234375,177.433594L321.058594,177.347656L320.089844,176.726562L362.992188,165.605469L363.078125,165.605469L376.585938,173.636719ZM387.621094,216.628906"
            fill="rgb(251,123,118)" stroke="none" stroke-width="1" />
        <path id="eji28tuoi3pl7"
            d="M320.089844,176.726562L320,177.082031L306.492188,247.171875L292.015625,247.171875L281.777344,169.843750L279.480469,152.718750ZM320.089844,176.726562"
            fill="rgb(255,83,100)" stroke="none" stroke-width="1" />
        <path id="eji28tuoi3pl8"
            d="M387.621094,216.628906L350.898438,247.171875L306.492188,247.171875L320,177.082031L321.058594,177.347656L321.234375,177.433594ZM387.621094,216.628906"
            fill="rgb(204,75,76)" stroke="none" stroke-width="1" />
        <path id="eji28tuoi3pl9"
            d="M428.226562,240.640625L411.453125,247.171875L350.898438,247.171875L387.621094,216.628906ZM428.226562,240.640625"
            transform="matrix(1 0 0 1 0 2)" fill="rgb(128,47,52)" stroke="none" stroke-width="1" />
        <path id="eji28tuoi3pl10"
            d="M225.457031,205.152344L217.687500,247.171875L181.671875,247.171875L186.968750,218.746094ZM225.457031,205.152344"
            fill="rgb(128,47,52)" stroke="none" stroke-width="1" />
        <path id="eji28tuoi3pl11"
            d="M225.457031,205.152344L186.968750,218.746094L186.878906,218.746094L163.839844,198.972656L171.253906,158.898438L188.910156,173.992188ZM225.457031,205.152344"
            fill="rgb(230,76,60)" stroke="none" stroke-width="1" />
        <path id="eji28tuoi3pl12"
            d="M171.253906,158.898438L163.839844,198.972656L135.062500,209.125000L104.078125,182.644531ZM171.253906,158.898438"
            fill="rgb(251,123,118)" stroke="none" stroke-width="1" />
        <path id="eji28tuoi3pl13"
            d="M135.062500,209.125000L129.500000,239.050781L106.550781,247.171875L92.160156,247.171875L98.250000,214.156250L104.078125,182.644531ZM135.062500,209.125000"
            fill="rgb(255,83,100)" stroke="none" stroke-width="1" />
        <path id="eji28tuoi3pl14" d="M320,177.082031L320.089844,176.726562L321.058594,177.347656ZM320,177.082031"
            fill="rgb(128,69,55)" stroke="none" stroke-width="1" />
        <path id="eji28tuoi3pl15"
            d="M99.035156,248.832031L127.726562,226.164062L145.097656,239.050781L152.277344,263.996094ZM99.035156,248.832031"
            fill="rgb(128,47,52)" stroke="none" stroke-width="1" />
        <path id="eji28tuoi3pl16"
            d="M212.234375,258.578125L203.562500,209.144531L188.910156,173.992188C208.046875,169.789062,227.582031,167.687500,247.171875,167.722656C258.742188,167.699219,270.296875,168.406250,281.777344,169.843750L306.492188,258.578125ZM212.234375,258.578125"
            fill="rgb(243,213,91)" stroke="none" stroke-width="1" />
        <path id="eji28tuoi3pl17"
            d="M186.968750,218.746094L181.671875,247.171875L138.945312,247.171875L129.500000,239.140625L129.500000,239.050781L135.062500,209.125000L163.839844,198.972656L186.878906,218.746094ZM186.968750,218.746094"
            fill="rgb(204,75,76)" stroke="none" stroke-width="1" />
    </g>
    <g id="eji28tuoi3pl18_tr" transform="translate(257.200736,378.540039) rotate(0)">
        <g id="eji28tuoi3pl18" transform="translate(-257.200736,-378.540039)">
            <path id="eji28tuoi3pl19"
                d="M308.964844,247.171875L493.109375,247.171875C497.992188,247.175781,502.656250,249.199219,506,252.757812C509.343750,256.320312,511.066406,261.101562,510.765625,265.976562L495.402344,495.492188C494.800781,504.757812,487.121094,511.972656,477.835938,512L34.164062,512C24.878906,511.972656,17.199219,504.757812,16.597656,495.492188L1.234375,265.976562C0.933594,261.101562,2.660156,256.320312,6,252.757812C9.343750,249.199219,14.007812,247.175781,18.890625,247.171875ZM308.964844,247.171875"
                fill="rgb(242,156,31)" stroke="none" stroke-width="1" />
            <path id="eji28tuoi3pl20"
                d="M454.796875,309.582031L451.882812,353.101562L295.371094,353.101562C304.144531,343.441406,308.996094,330.847656,308.964844,317.792969L308.964844,300.136719L445.968750,300.136719C448.421875,300.132812,450.765625,301.144531,452.441406,302.937500C454.113281,304.730469,454.968750,307.136719,454.796875,309.582031ZM454.796875,309.582031"
                fill="rgb(175,128,102)" stroke="none" stroke-width="1" />
            <path id="eji28tuoi3pl21"
                d="M273.656250,300.136719C273.656250,309.886719,265.750000,317.792969,256,317.792969C246.250000,317.792969,238.343750,309.886719,238.343750,300.136719C238.343750,290.386719,246.250000,282.484375,256,282.484375C265.750000,282.484375,273.656250,290.386719,273.656250,300.136719ZM273.656250,300.136719"
                fill="rgb(44,47,56)" stroke="none" stroke-width="1" />
            <path id="eji28tuoi3pl22"
                d="M203.035156,247.171875L203.035156,317.792969C203.035156,347.046875,226.746094,370.757812,256,370.757812C285.253906,370.757812,308.964844,347.046875,308.964844,317.792969L308.964844,247.171875ZM256,317.792969C246.250000,317.792969,238.343750,309.886719,238.343750,300.136719C238.343750,290.386719,246.250000,282.484375,256,282.484375C265.750000,282.484375,273.656250,290.386719,273.656250,300.136719C273.625000,309.875000,265.738281,317.765625,256,317.792969ZM256,317.792969"
                fill="rgb(240,196,25)" stroke="none" stroke-width="1" />
            <path id="eji28tuoi3pl23"
                d="M216.628906,353.101562L60.117188,353.101562L57.203125,309.582031C57.031250,307.136719,57.886719,304.730469,59.558594,302.937500C61.234375,301.144531,63.578125,300.132812,66.031250,300.136719L203.035156,300.136719L203.035156,317.792969C203.003906,330.847656,207.855469,343.441406,216.628906,353.101562ZM216.628906,353.101562"
                fill="rgb(175,128,102)" stroke="none" stroke-width="1" />
            <path id="eji28tuoi3pl24"
                d="M451.882812,353.101562L448.351562,406.070312L63.648438,406.070312L60.117188,353.101562L216.628906,353.101562C226.632812,364.335938,240.957031,370.757812,256,370.757812C271.042969,370.757812,285.367188,364.335938,295.371094,353.101562ZM451.882812,353.101562"
                transform="matrix(1 0 0 1 0 1)" fill="rgb(128,83,51)" stroke="none" stroke-width="1" />
            <path id="eji28tuoi3pl25"
                d="M448.351562,406.070312L445.351562,450.824219C445.027344,455.457031,441.167969,459.046875,436.523438,459.035156L75.476562,459.035156C70.832031,459.046875,66.972656,455.457031,66.648438,450.824219L63.648438,406.070312ZM448.351562,406.070312"
                fill="rgb(175,128,102)" stroke="none" stroke-width="1" />
            <path id="eji28tuoi3pl26"
                d="M256,344.277344C251.125000,344.277344,247.171875,340.324219,247.171875,335.449219L247.171875,317.792969C247.171875,312.917969,251.125000,308.964844,256,308.964844C260.875000,308.964844,264.828125,312.917969,264.828125,317.792969L264.828125,335.449219C264.828125,340.324219,260.875000,344.277344,256,344.277344ZM256,344.277344"
                fill="rgb(44,47,56)" stroke="none" stroke-width="1" />
        </g>
    </g>
    <g id="eji28tuoi3pl27_to" transform="translate(256.380927,260.736313)">
        <g id="eji28tuoi3pl27_tr" transform="rotate(0)">
            <g id="eji28tuoi3pl27" transform="translate(-255.999982,-123.585924)">
                <path id="eji28tuoi3pl28"
                    d="M512,97.101562L512,105.929688L0,105.929688L0,97.101562C-0.015625,71.347656,10.210938,46.640625,28.425781,28.425781C46.640625,10.210938,71.347656,-0.015625,97.101562,0L414.898438,0C440.656250,-0.015625,465.359375,10.210938,483.574219,28.425781C501.789062,46.640625,512.015625,71.347656,512,97.101562ZM512,97.101562"
                    transform="matrix(1 0 0 1 0 4.09179841000000)" fill="rgb(229,126,37)" stroke="none"
                    stroke-width="1" />
                <path id="eji28tuoi3pl29"
                    d="M150.070312,0C113.082031,0,80.597656,11.828125,61.703125,35.308594C53.429688,45.511719,47.929688,57.671875,45.726562,70.621094C44.644531,76.441406,44.113281,82.355469,44.136719,88.277344L44.136719,105.929688L0,105.929688L0,97.101562C-0.015625,71.347656,10.210938,46.640625,28.425781,28.425781C46.640625,10.210938,71.347656,-0.015625,97.101562,0ZM150.070312,0"
                    fill="rgb(240,196,25)" stroke="none" stroke-width="1" />
                <path id="eji28tuoi3pl30"
                    d="M512,97.101562L512,105.929688L467.863281,105.929688L467.863281,88.277344C467.886719,82.355469,467.355469,76.441406,466.273438,70.621094C464.070312,57.671875,458.570312,45.511719,450.296875,35.308594C431.402344,11.828125,398.917969,0,361.929688,0L414.898438,0C440.656250,-0.015625,465.359375,10.210938,483.574219,28.425781C501.789062,46.640625,512.015625,71.347656,512,97.101562ZM512,97.101562"
                    fill="rgb(240,196,25)" stroke="none" stroke-width="1" />
                <path id="eji28tuoi3pl31"
                    d="M467.863281,88.277344L467.863281,105.929688L44.136719,105.929688L44.136719,88.277344C44.113281,82.355469,44.644531,76.441406,45.726562,70.621094L466.273438,70.621094C467.355469,76.441406,467.886719,82.355469,467.863281,88.277344ZM467.863281,88.277344"
                    fill="rgb(203,130,82)" stroke="none" stroke-width="1" />
                <path id="eji28tuoi3pl32"
                    d="M466.273438,70.621094L45.726562,70.621094C47.929688,57.671875,53.429688,45.511719,61.703125,35.308594L450.296875,35.308594C458.570312,45.511719,464.070312,57.671875,466.273438,70.621094ZM466.273438,70.621094"
                    fill="rgb(175,128,102)" stroke="none" stroke-width="1" />
            </g>
        </g>
    </g>
</svg>